<svg width="600" height="600" xmlns="http://www.w3.org/2000/svg" preserveAspectRatio="xMidYMid meet" version="1.0">

 <g>
  <title>Layer 1</title>
  <g id="svg_1" fill="#000000" transform="translate(0 600) scale(0.1 -0.1)">
   <path fill="#ffffff" id="svg_2" d="m2974,5486c-10,-13 -76,-87 -145,-163c-70,-76 -238,-262 -374,-413c-137,-151 -271,-299 -299,-329l-50,-54l-451,-93c-762,-158 -845,-177 -845,-191c0,-8 92,-290 204,-628l204,-615l-204,-615c-112,-338 -204,-620 -204,-628c0,-14 104,-38 835,-188c242,-49 447,-93 456,-97c14,-6 283,-300 628,-687c74,-82 165,-183 203,-223l68,-72l68,72c38,40 129,141 203,223c345,387 614,681 628,687c9,4 214,48 456,97c731,150 835,174 835,188c0,8 -92,290 -204,628l-204,615l204,615c112,338 204,620 204,628c0,14 -104,38 -835,188c-242,49 -447,93 -456,97c-14,6 -283,300 -628,687c-137,154 -269,295 -274,295c-2,0 -12,-11 -23,-24zm401,-806l367,-405l541,-113c298,-63 543,-115 545,-117c2,-2 -74,-238 -169,-524l-174,-521l174,-521c95,-286 171,-522 169,-524c-2,-2 -247,-54 -545,-117l-541,-113l-367,-405c-202,-223 -370,-405 -375,-405c-5,0 -173,182 -375,405l-367,405l-542,113c-297,63 -543,115 -545,117c-1,2 75,238 170,524l174,521l-174,521c-95,286 -171,522 -169,524c2,2 247,54 544,116l541,113l369,408c203,224 372,407 376,405c4,-1 172,-184 373,-407z"/>
   <path fill="#ffffff" id="svg_3" d="m2507,3853c-3,-5 -142,-368 -310,-808c-294,-773 -374,-991 -365,-1001c3,-2 531,-3 1175,-2l1170,3l-340,908l-339,907l-142,0l-141,0l-110,-270c-60,-148 -113,-270 -116,-270c-3,0 -41,98 -84,218c-43,119 -86,241 -97,270l-19,52l-139,0c-76,0 -141,-3 -143,-7zm267,-509c58,-171 106,-316 106,-323c0,-17 -271,-754 -282,-768c-8,-10 -70,-13 -249,-13c-132,0 -239,3 -239,8c-1,19 546,1420 552,1414c4,-4 54,-147 112,-318zm657,111c45,-116 117,-309 159,-430c43,-122 114,-313 158,-425c69,-175 122,-330 122,-354c0,-3 -107,-6 -238,-6l-238,0l-152,393l-151,392l115,300c64,165 120,311 125,324c5,13 11,22 14,20c2,-2 41,-99 86,-214zm-386,-860c27,-71 68,-176 92,-232c24,-57 43,-107 43,-113c0,-6 -71,-10 -196,-10c-108,0 -194,4 -192,9c119,307 194,489 199,483c3,-4 27,-65 54,-137z"/>
  </g>
 </g>
</svg>